<svg width="80" height="80" viewBox="0 0 80 80" fill="none" xmlns="http://www.w3.org/2000/svg">
<path d="M73.8578 7.46409H69.7355V5.42198C69.7355 2.43342 67.3035 0 64.3149 0C61.3264 0 58.893 2.43203 58.893 5.42198V7.46409H45.3874V5.42198C45.3874 2.43342 42.9554 0 39.9668 0C36.9783 0 34.5448 2.43203 34.5448 5.42198V7.46409H21.0393V5.42198C21.0393 2.43342 18.6073 0 15.6187 0C12.6301 0 10.1967 2.43203 10.1967 5.42198V7.46409H6.07301C3.5975 7.46409 1.58252 9.47907 1.58252 11.9546V19.6898C1.58252 21.7368 2.96704 23.45 4.84343 23.9888V65.4171C4.84343 65.4321 4.84818 65.4477 4.84818 65.4627V72.3894C4.84818 76.5851 8.26127 79.9981 12.457 79.9981H67.475C71.6707 79.9981 75.0838 76.5851 75.0838 72.3894V58.1975C75.0852 58.1744 75.0886 58.1534 75.0886 58.1303L75.0879 23.9872C76.9643 23.4485 78.3488 21.7366 78.3488 19.6882V11.953C78.3495 9.47681 76.3345 7.46392 73.8583 7.46392L73.8578 7.46409ZM61.9351 5.42198C61.9351 4.11149 63.0017 3.04352 64.3136 3.04352C65.6254 3.04352 66.6906 4.1101 66.6906 5.42198V7.46409H61.9351V5.42198ZM37.587 5.42198C37.587 4.11149 38.6535 3.04352 39.9654 3.04352C41.2773 3.04352 42.3425 4.1101 42.3425 5.42198V7.46409H37.587V5.42198ZM13.2388 5.42198C13.2388 4.11149 14.3054 3.04352 15.6173 3.04352C16.9292 3.04352 17.9944 4.1101 17.9944 5.42198V7.46409H13.2388V5.42198ZM72.0396 55.5061H61.9403C59.4232 55.5061 57.375 57.5543 57.375 60.0713V70.1762L12.4527 70.1755C9.95062 70.1755 7.91668 68.0647 7.89216 65.4627V24.1805H72.0408L72.0396 55.5061ZM71.4145 58.5496L61.1257 68.8384C60.9063 69.0578 60.6705 69.2494 60.4178 69.4165L60.4185 60.0714C60.4185 59.2331 61.1019 58.5496 61.9403 58.5496L71.4145 58.5496ZM67.4743 76.955H12.458C9.94092 76.955 7.89272 74.9068 7.89272 72.3897V71.6227C9.16787 72.6105 10.7371 73.2192 12.4533 73.2192H57.8973C59.9287 73.2192 61.8403 72.4278 63.2784 70.9896L72.0408 62.2273V72.3898C72.0401 74.9069 69.9919 76.9551 67.4748 76.9551L67.4743 76.955ZM75.3059 19.69C75.3059 20.5011 74.67 21.137 73.8589 21.137H6.07369C5.26253 21.137 4.62666 20.5011 4.62666 19.69V11.9548C4.62666 11.1572 5.27613 10.5077 6.07369 10.5077H10.196V12.5498C10.196 15.5384 12.628 17.9718 15.618 17.9718C16.4577 17.9718 17.1397 17.2897 17.1397 16.4501C17.1397 15.6104 16.4577 14.9283 15.618 14.9283C14.3075 14.9283 13.2395 13.8617 13.2395 12.5498V10.5077H34.5441V12.5498C34.5441 15.5384 36.9762 17.9718 39.9661 17.9718C40.8058 17.9718 41.4879 17.2897 41.4879 16.4501C41.4879 15.6104 40.8058 14.9283 39.9661 14.9283C38.6556 14.9283 37.5876 13.8617 37.5876 12.5498V10.5077H58.8922V12.5498C58.8922 15.5384 61.3243 17.9718 64.3142 17.9718C65.1539 17.9718 65.836 17.2897 65.836 16.4501C65.836 15.6104 65.1539 14.9283 64.3142 14.9283C63.0037 14.9283 61.9358 13.8617 61.9358 12.5498V10.5077H73.8571C74.6547 10.5077 75.3042 11.1572 75.3042 11.9548V19.69H75.3059Z" fill="white"/>
<path d="M22.1927 67.6401C22.6873 67.6401 23.1907 67.5491 23.6825 67.3555L31.7308 64.1626C31.7383 64.1599 31.7444 64.1565 31.7519 64.1551L40.8871 60.5321C40.8898 60.5308 40.8932 60.5294 40.8959 60.5294L51.2514 56.4207C51.2561 56.4193 51.2602 56.4145 51.2649 56.4132C51.714 56.314 52.1291 56.1394 52.4552 55.8439C54.1502 54.3113 53.3818 51.1645 50.1753 46.4925C49.1026 44.9266 47.8275 43.3239 46.3831 41.7281C45.3851 40.6248 36.5237 31.0438 32.9447 34.2762C32.6193 34.5717 32.4012 34.9657 32.2585 35.4025C32.2572 35.4053 32.2524 35.4087 32.2511 35.4114L18.6102 61.7525C18.0504 62.8327 18.0042 64.0841 18.4791 65.1766C19.1428 66.7167 20.6217 67.6399 22.1925 67.6399L22.1927 67.6401ZM29.0984 58.5143C27.9129 57.2133 26.8157 55.8118 25.8354 54.4205L28.6493 48.9878C28.6581 49.0027 28.669 49.0197 28.6785 49.0346C28.6982 49.0666 28.7213 49.0985 28.7471 49.1291C29.9095 50.8879 31.3552 52.7343 32.9246 54.4627C33.909 55.5687 34.9559 56.6251 36.0211 57.5932C36.4335 57.9783 36.8534 58.3343 37.2739 58.689L31.5094 60.9744C30.6827 60.1979 29.8715 59.382 29.0985 58.5144L29.0984 58.5143ZM34.7669 42.9496C34.7792 42.9679 34.7928 42.9863 34.805 43.006C35.9612 44.7608 37.4177 46.6201 39.017 48.3899C40.0503 49.5325 41.0912 50.5856 42.1075 51.5169C43.4159 52.7234 44.6917 53.7479 45.8888 54.559C46.132 54.7248 46.3541 54.8498 46.5871 54.9958L40.5246 57.4C39.7087 56.7825 38.8915 56.1126 38.0777 55.3544C37.0776 54.4461 36.1068 53.4659 35.1849 52.4311C33.6876 50.7816 32.3228 49.0344 31.2358 47.3836C31.2175 47.3543 31.1964 47.3258 31.1733 47.2966C30.8663 46.8217 30.5755 46.3258 30.2909 45.8142L33.1911 40.213C33.6095 41.052 34.1238 41.9603 34.7672 42.9493L34.7669 42.9496ZM44.1271 43.7669C45.4796 45.2615 46.6699 46.7573 47.6666 48.2106C49.5796 50.9986 50.153 52.6786 50.2645 53.4117C49.8338 53.305 48.9955 52.9871 47.6015 52.0394C46.5241 51.3104 45.3705 50.3804 44.1688 49.2745C43.2191 48.4056 42.2469 47.4192 41.2761 46.3464C39.7652 44.6773 38.3969 42.9273 37.3195 41.2879C37.3107 41.2744 37.2998 41.2587 37.2889 41.2438C35.7502 38.8714 35.2319 37.3817 35.1339 36.6813C36.4383 36.9816 39.8942 39.0876 44.1273 43.7669L44.1271 43.7669ZM21.3163 63.1497L24.2668 57.4519C25.0746 58.5144 25.9394 59.5641 26.8388 60.5504C27.347 61.121 27.8708 61.6747 28.4 62.2094L22.5643 64.524C21.9087 64.7828 21.4291 64.3229 21.2769 63.9669C21.1594 63.7006 21.173 63.4255 21.3163 63.1497L21.3163 63.1497Z" fill="white"/>
<path d="M50.3534 39.6565C50.7169 39.6565 51.0824 39.5274 51.3732 39.2638L58.1755 33.1116C58.7991 32.547 58.8467 31.5851 58.2835 30.9614C57.7203 30.3392 56.759 30.2902 56.1334 30.8534L49.3311 37.0057C48.7074 37.5702 48.6599 38.5322 49.223 39.1558C49.5247 39.4894 49.9384 39.6565 50.3535 39.6565H50.3534Z" fill="white"/>
<path d="M43.0262 35.6945C43.052 35.6959 43.0778 35.6959 43.1036 35.6959C43.9086 35.6959 44.5812 35.0627 44.6227 34.2502L44.9515 27.687C44.9943 26.8487 44.3475 26.1333 43.5071 26.0919C42.681 26.0491 41.9534 26.6958 41.912 27.5362L41.5832 34.0994C41.539 34.9384 42.1858 35.6537 43.0262 35.6945V35.6945Z" fill="white"/>
<path d="M52.042 45.8248C51.9992 46.6645 52.646 47.3785 53.485 47.4213L60.0482 47.7501C60.074 47.7515 60.0999 47.7515 60.1257 47.7515C60.9307 47.7515 61.6033 47.1183 61.6447 46.3058C61.6875 45.4661 61.0408 44.7521 60.2018 44.7093L53.6385 44.3805C52.8226 44.3425 52.0828 44.9845 52.042 45.8248Z" fill="white"/>
</svg>
