<svg width="80" height="80" viewBox="0 0 80 80" fill="none" xmlns="http://www.w3.org/2000/svg">
<g clip-path="url(#clip0_3292_1864)">
<path d="M45.9352 54.2345C44.1976 51.3842 42.2065 48.6969 39.9853 46.2046C39.9559 46.1696 39.9253 46.1365 39.8934 46.1034C36.0953 41.8685 31.5074 38.4153 26.3873 35.9361L26.3635 35.9262C24.8303 35.2376 23.2196 34.739 21.5658 34.4404C21.244 34.3948 20.9191 34.371 20.5942 34.3692C20.3312 34.3685 20.0681 34.3879 19.8082 34.4285C19.1434 34.4729 18.5124 34.7378 18.015 35.1814C17.5177 35.6256 17.1828 36.2229 17.0635 36.8783H17.0491L5.67474 62.1244C5.65225 62.1744 5.63225 62.2238 5.61351 62.275C3.8141 67.2259 2.55323 70.4235 1.83043 71.8663C1.42243 72.681 1.56552 73.6631 2.18781 74.3287H2.17344C2.14283 75.1921 2.27154 76.0543 2.55457 76.8715C2.74887 77.4107 3.04129 77.9093 3.41616 78.3423L3.41678 78.3429C3.66296 78.6247 3.94536 78.8727 4.25588 79.0814C5.12872 79.6406 6.1503 79.9224 7.18548 79.8893C8.61689 79.8424 10.0289 79.5463 11.3585 79.0133C11.4023 78.9971 11.4454 78.9796 11.4878 78.9608C20.4148 75.2283 29.1477 71.0471 37.6537 66.4344H37.6393C40.9032 65.0467 43.758 62.848 45.934 60.0476H45.9278C46.5014 59.1867 46.8075 58.1764 46.8088 57.1423C46.81 56.1083 46.5064 55.0968 45.9353 54.2351L45.9352 54.2345ZM28.9487 66.1387C26.8094 67.1865 24.229 68.4068 21.1881 69.8076L21.1887 69.807C20.627 66.5693 19.7835 63.3872 18.6689 60.2957L18.652 60.2482C17.8241 57.6091 16.3878 55.2011 14.4583 53.2193L18.1003 45.1357C20.9162 47.4231 23.2675 50.2291 25.0269 53.4018C26.9581 57.4299 28.2796 61.7223 28.9488 66.1383L28.9487 66.1387ZM9.72141 74.9834H9.70704C8.91605 75.3133 8.07878 75.5188 7.22465 75.5925C7.04035 75.6038 6.85665 75.5638 6.69421 75.4769H6.69171C6.66734 75.442 6.6486 75.4038 6.6361 75.3632C6.48053 74.7309 6.4699 74.0718 6.60548 73.4344C6.66234 73.0358 6.60736 72.6291 6.44616 72.2604H6.43117C7.21654 70.4305 8.28864 67.6469 9.64819 63.9113H9.64195L12.5085 57.5497L12.5079 57.5491C13.3701 58.8605 14.0636 60.2751 14.5722 61.7589H14.5716C15.7681 64.9684 16.5991 68.3024 17.0495 71.6982C14.8003 72.7173 12.3572 73.8126 9.72131 74.9834L9.72141 74.9834ZM42.2836 57.6706C42.2479 57.725 42.2155 57.78 42.1848 57.8374C40.4054 59.92 38.153 61.5468 35.6171 62.5815C35.5596 62.6115 35.504 62.644 35.4496 62.679C34.8586 63.0601 34.0245 63.5362 32.9711 64.0985V64.0979C32.2213 59.6075 30.8055 55.2539 28.7699 51.1815L28.7636 51.1715H28.7643C26.5794 47.214 23.5623 43.7776 19.9203 41.0991L20.9768 38.7542H20.9918C22.267 39.0073 23.5091 39.4071 24.6932 39.9445H24.6925C29.2685 42.2005 33.3665 45.3178 36.7623 49.1251H36.7567C38.7604 51.3726 40.5611 53.7937 42.1382 56.3585L42.1394 56.3603V56.361C42.4337 56.734 42.4893 57.2419 42.2837 57.6705L42.2836 57.6706Z" fill="white"/>
<path d="M32.234 24.7468C32.2228 25.9795 31.8123 27.1755 31.065 28.1556C30.7457 28.5936 30.379 28.9947 29.9697 29.3502C29.8898 29.4302 29.7973 29.4971 29.6961 29.5489C29.2718 29.7826 28.872 30.0575 28.5021 30.3699C28.0854 30.8554 27.4743 31.129 26.8351 31.1165C26.499 31.1134 26.1678 31.0372 25.8648 30.8929C25.13 30.5249 24.6671 29.7732 24.6702 28.9516C24.6702 28.6154 24.747 28.2837 24.8945 27.9813C25.0644 27.6608 25.2919 27.374 25.5661 27.1353C26.0816 26.7223 26.6221 26.3399 27.1831 25.9913C27.3255 25.867 27.4511 25.7245 27.5567 25.5683C27.736 25.3496 27.841 25.0791 27.8547 24.7967V24.6974C27.7173 24.0738 27.4455 23.4884 27.0587 22.9805L26.9844 22.8312C26.7857 22.5075 26.089 21.6372 24.8945 20.2189C24.8551 20.1826 24.8214 20.1408 24.7945 20.0945C24.434 19.6222 24.1097 19.123 23.8242 18.6013L23.7992 18.5513V18.5519C23.22 17.616 22.9995 16.5027 23.1775 15.4166L23.2025 15.3667C23.3975 14.3607 23.9123 13.4447 24.6702 12.7544H24.6952C24.8289 12.5888 24.9888 12.4457 25.1681 12.3314C25.5661 12.0327 26.6364 11.3861 28.4028 10.3658C28.737 10.1796 29.1144 10.0853 29.4974 10.0921C30.2759 10.1009 30.9932 10.5164 31.388 11.1868C31.9691 12.2327 31.6036 13.5503 30.567 14.1478C29.1238 14.9687 28.2284 15.4911 27.8548 15.7647C27.8048 15.8147 27.7554 15.839 27.7055 15.889L27.7061 15.8896C27.6017 15.969 27.5168 16.0714 27.4568 16.1883H27.4818C27.5211 16.2926 27.5711 16.3926 27.6311 16.4863C27.8373 16.8462 28.0616 17.1948 28.3028 17.5316C29.1968 18.5107 30.0123 19.5591 30.7413 20.6669C31.5048 21.7453 31.9997 22.9905 32.1846 24.2995L32.2096 24.3245C32.209 24.4732 32.234 24.6225 32.234 24.7468L32.234 24.7468Z" fill="white"/>
<path d="M68.7342 43.5568C68.4424 43.6956 68.1806 43.8899 67.9632 44.1292C67.2066 45.3356 66.3493 46.4759 65.4004 47.538C65.251 47.6623 65.1267 47.7616 65.0024 47.8616V47.861C64.147 48.6157 63.1823 49.2362 62.1407 49.7023L61.9664 49.7766L61.967 49.7773C61.0948 50.1203 60.167 50.2971 59.2299 50.2996C58.8718 50.2996 58.5145 50.2746 58.1602 50.2246C57.6104 50.1509 57.0693 50.0259 56.5427 49.8516H56.4927C56.4927 49.8266 56.4427 49.8266 56.3933 49.8016C54.9501 49.2293 54.0298 48.9057 53.6568 48.7814C53.5574 48.7564 53.5075 48.7564 53.4331 48.7314V48.732C53.1751 48.647 52.9076 48.597 52.6365 48.5827H52.5621C52.4147 48.6614 52.2804 48.762 52.1641 48.8813C52.2147 49.3655 52.1104 49.8535 51.8655 50.2746C51.4744 50.9344 50.7658 51.3405 49.9992 51.3443C49.3738 51.313 48.7815 51.0519 48.3361 50.6114C47.8912 50.1703 47.6238 49.5811 47.5857 48.9556C47.5932 48.447 47.7119 47.9459 47.9343 47.488C48.0174 47.2686 48.1255 47.06 48.2573 46.8657C48.3398 46.7113 48.431 46.5614 48.531 46.4177C48.581 46.3658 48.6228 46.3077 48.656 46.244C49.462 45.2374 50.599 44.5495 51.8655 44.3033L51.9398 44.2783C52.1629 44.2577 52.3872 44.249 52.6115 44.2534C53.2238 44.259 53.833 44.334 54.4277 44.477C54.527 44.502 54.627 44.527 54.7013 44.5514C55.1243 44.6757 56.194 45.0487 57.8859 45.721C58.1846 45.7953 58.4832 45.8703 58.7569 45.9203H58.8069C58.9468 45.9416 59.0886 45.9503 59.2298 45.9453C59.6141 45.9428 59.994 45.8672 60.3495 45.7216C61.0324 45.4423 61.6572 45.0369 62.1908 44.527C62.2651 44.477 62.3151 44.4277 62.3901 44.3777H62.3895C63.1555 43.4761 63.854 42.5202 64.4794 41.5167C64.5293 41.4648 64.5712 41.4061 64.6043 41.3424C65.1885 40.6657 65.8983 40.1084 66.6942 39.7004C67.2053 39.4317 67.802 39.378 68.353 39.5504C68.9041 39.7235 69.3633 40.1084 69.6301 40.6207C70.188 41.6791 69.7882 42.9898 68.7341 43.5565L68.7342 43.5568Z" fill="white"/>
<path d="M44.4509 27.9811C44.4459 28.0579 44.429 28.1335 44.4009 28.2054C44.261 29.0894 43.5862 29.7936 42.709 29.9717C42.5984 30.0179 42.4803 30.0429 42.361 30.0466C42.1823 30.0954 41.9986 30.1204 41.8137 30.121C41.6281 30.1222 41.4438 30.0973 41.2663 30.0466H41.2413C40.7584 29.9454 40.3167 29.703 39.9724 29.3494C39.6306 29.0676 39.3726 28.6977 39.2257 28.2797L39.2008 28.2054C39.1758 28.1329 39.1595 28.0573 39.1514 27.9811C39.0514 27.6149 39.0514 27.2282 39.1514 26.8614C39.1733 26.7665 39.2064 26.6746 39.2507 26.5878C39.4857 25.9798 39.9505 25.4887 40.5447 25.2195C40.9289 25.0214 41.3557 24.9189 41.7886 24.9208C41.8967 24.9171 42.0055 24.9252 42.1117 24.9458C42.186 24.9458 42.236 24.9708 42.286 24.9708H42.311C42.574 25.017 42.8264 25.1101 43.0576 25.2444C43.2182 25.335 43.3681 25.4438 43.5056 25.5675C43.5418 25.6068 43.5837 25.6399 43.6299 25.6674C43.6299 25.6924 43.6549 25.7174 43.6799 25.7418H43.6793C43.8805 25.9317 44.041 26.1604 44.1522 26.4134C44.4103 26.8933 44.514 27.4406 44.4509 27.9811L44.4509 27.9811Z" fill="white"/>
<path d="M67.9393 27.3604C67.9393 27.4104 67.9143 27.4348 67.8893 27.4848H67.9143V27.5348V27.5341C67.9349 27.6828 67.9436 27.8328 67.9393 27.9821C67.8805 28.5069 67.6631 29.0018 67.317 29.4004L67.2426 29.4748V29.4754C66.8071 29.9933 66.1767 30.3082 65.5006 30.3457C64.8208 30.3107 64.1723 30.0477 63.6599 29.5997L63.5356 29.4754H63.535C63.0776 29.0818 62.7627 28.5482 62.6396 27.9571C62.4916 27.2736 62.6165 26.5594 62.9877 25.9672C63.0064 25.916 63.0414 25.8722 63.0876 25.8429C63.4375 25.3362 63.9317 24.9457 64.5059 24.7232C64.5803 24.6982 64.6303 24.6733 64.7052 24.6489C64.7552 24.6489 64.8046 24.6239 64.8546 24.6239L64.8539 24.6233C65.032 24.5683 65.2157 24.5352 65.4013 24.5239C65.4744 24.5033 65.55 24.4952 65.6256 24.4989C65.9217 24.4983 66.2166 24.5489 66.4959 24.6483C67.0495 24.8132 67.5137 25.1931 67.7849 25.7023C68.056 26.2121 68.1116 26.8094 67.9392 27.3605L67.9393 27.3604Z" fill="white"/>
<path d="M48.672 38.0913H48.667L53.3255 34.5499C53.3673 34.518 53.4079 34.4849 53.4473 34.4499C54.0902 33.9007 54.6363 33.2472 55.0631 32.5161C55.6779 31.4346 56.0721 30.2412 56.224 29.0067H56.2246C56.3227 27.5522 56.2696 26.0913 56.0653 24.6488H56.0565H56.0571C56.054 24.5476 56.0565 24.4463 56.0653 24.3458H56.0503C56.5332 23.2499 56.039 21.9691 54.9444 21.4817C53.8504 20.9944 52.5677 21.483 52.0752 22.5757C51.9752 22.8 51.8971 23.0337 51.8416 23.273C51.7372 23.7479 51.6916 24.234 51.706 24.72C51.7072 24.7844 51.711 24.8494 51.7178 24.9137C51.8834 26.0552 51.9509 27.2093 51.9209 28.3625L51.9109 28.4287C51.8334 29.1016 51.6229 29.7527 51.2923 30.3444L51.2767 30.3726H51.2761C51.0874 30.6806 50.8487 30.9549 50.5707 31.1848H50.5613L46.034 34.6269L45.9471 34.6968H45.9465C45.1068 35.4103 44.3395 36.2057 43.6567 37.0705C43.2974 37.5222 43.1325 38.0976 43.1975 38.6712C43.2631 39.2448 43.553 39.7684 44.0047 40.1276C44.945 40.8761 46.314 40.7199 47.0618 39.7796C47.5448 39.1679 48.0833 38.6025 48.6718 38.0914L48.672 38.0913Z" fill="white"/>
<path d="M46.583 14.2474C46.5293 14.3924 46.4624 14.533 46.3837 14.666H46.3812C46.0169 15.1896 45.5452 15.6289 44.9985 15.9562C43.9864 16.6048 43.6921 17.9506 44.34 18.9621C44.9885 19.9737 46.3344 20.2686 47.3459 19.6201C48.4705 18.9303 49.422 17.9924 50.1293 16.879L50.1655 16.8172C50.4167 16.3848 50.6185 15.9256 50.7666 15.4476L50.7803 15.4008C51.0227 14.428 51.3151 13.4683 51.6569 12.5254L51.6988 12.4342V12.4335C51.9062 11.9487 52.1792 11.4945 52.511 11.084L52.6316 10.9203L52.6322 10.9197H52.6472L52.6466 10.9203C53.4419 10.1387 54.4365 9.59072 55.5219 9.33644H55.5226V9.33582C55.6194 9.30707 55.7144 9.27146 55.8068 9.2296H55.7918L55.8749 9.19711H55.8768L55.8762 9.19649C56.8203 8.72415 57.2882 7.64199 56.9877 6.6298C56.714 5.71447 55.8531 5.10218 54.8985 5.14466C54.5692 5.14716 54.2424 5.20151 53.93 5.3046L54.2337 5.18464H54.2187V5.18402C52.2256 5.68949 50.4399 6.80349 49.1098 8.37114H49.1092C48.5362 9.08403 48.0633 9.8719 47.7028 10.7123H47.7009C47.256 11.8663 46.883 13.0472 46.5844 14.2475L46.583 14.2474Z" fill="white"/>
<path d="M69.7545 10.5911V10.8648C69.682 11.4027 69.4477 11.9057 69.0829 12.3074L69.0329 12.3574C68.543 12.8304 67.9157 13.1353 67.2416 13.2284H67.1667C67.1029 13.249 67.0354 13.2571 66.968 13.2534H66.8686C66.8124 13.2734 66.753 13.2821 66.6943 13.2777C66.107 13.2896 65.5291 13.1347 65.0274 12.8304C64.6125 12.6173 64.267 12.2924 64.0289 11.8919C63.7915 11.4908 63.6716 11.0316 63.6834 10.5661V10.3424C63.7334 9.91945 63.7578 9.79511 63.7828 9.67078L63.7834 9.67016C64.0339 8.90666 64.5444 8.25499 65.226 7.82884C66.0026 7.32212 67.0166 7.37211 67.7389 7.95317H67.7639C67.9376 8.02939 68.1038 8.12124 68.2613 8.22682H68.2863C68.7055 8.44301 69.0641 8.75977 69.3316 9.14777C69.619 9.57327 69.7664 10.0775 69.7545 10.591L69.7545 10.5911Z" fill="white"/>
<path d="M44.2141 4.93638H44.2491C44.3041 4.93638 44.3591 4.93451 44.414 4.93013C45.0138 4.89452 45.5843 4.65898 46.0341 4.26035H46.0254C46.4846 3.87798 46.7901 3.34315 46.8851 2.75334C46.9082 2.63213 46.9213 2.50968 46.9238 2.38658L46.9245 2.35159V2.35097C46.9313 2.07732 46.8951 1.80427 46.817 1.54186H46.8151C46.7052 1.1826 46.509 0.855827 46.2434 0.589674L46.2378 0.584051C45.8348 0.162317 45.2806 -0.0807232 44.6977 -0.0926073H44.6827C44.4378 -0.186951 44.1785 -0.235685 43.9161 -0.236311C43.6224 -0.23756 43.3325 -0.171957 43.0676 -0.0438776L43.0657 -0.0432528L42.9495 0.01048H42.9502C42.4934 0.220411 42.1154 0.570297 41.8711 1.00891H41.8561C41.7012 1.27507 41.5969 1.56747 41.5487 1.87174L41.5394 1.93422C41.4575 2.38033 41.5 2.84018 41.6618 3.26379C41.8243 3.68739 42.0992 4.05853 42.4572 4.33656C42.9558 4.73393 43.5768 4.94573 44.2141 4.93636L44.2141 4.93638Z" fill="white"/>
<path d="M79.038 33.683C79.1574 32.8258 78.6819 31.996 77.8815 31.6656H77.8659C77.8128 31.5981 77.7553 31.5331 77.6941 31.4719C77.2861 31.0639 76.7325 30.834 76.1552 30.834C75.5779 30.834 75.0243 31.0633 74.6163 31.4713L74.6157 31.4719H74.6151C74.1908 31.8968 73.9203 32.4516 73.8484 33.0476V33.0483C73.7753 33.5481 73.8259 34.0586 73.9959 34.5347C74.014 34.5859 74.0352 34.6371 74.0571 34.6871C74.3095 35.2807 74.7912 35.7468 75.3923 35.9804C75.4342 35.9973 75.4754 36.0123 75.5179 36.0267C75.7903 36.1179 76.0758 36.1648 76.3633 36.1648L76.4739 36.1623H76.4895L76.5551 36.1635C76.9987 36.1641 77.4317 36.0285 77.7966 35.7749H77.7809C78.1527 35.5468 78.4651 35.2332 78.6919 34.8602L78.695 34.8558C78.9181 34.5053 79.0368 34.0985 79.038 33.6831V33.683Z" fill="white"/>
</g>
<defs>
<clipPath id="clip0_3292_1864">
<rect width="80" height="80" fill="white"/>
</clipPath>
</defs>
</svg>
