<svg width="80" height="80" viewBox="0 0 80 80" fill="none" xmlns="http://www.w3.org/2000/svg">
<g clip-path="url(#clip0_3322_1864)">
<path d="M59.4434 52.6962C59.4434 51.4115 60.5138 50.5547 61.7985 50.5547C62.8689 50.5547 63.94 51.4109 63.94 52.6962V61.6893L69.2928 61.4751C70.5774 61.4751 71.6479 62.5455 71.6479 63.8302C71.6479 65.1149 70.5775 65.9717 69.2928 65.9717L61.7985 66.1859C60.5138 66.1859 59.4434 65.1155 59.4434 63.8308V52.6962Z" fill="white"/>
<path d="M69.7901 45.2405V13.6881C69.7901 9.38563 66.2468 5.84246 61.9445 5.84246L51.652 5.84187V2.97362C51.652 1.62365 50.5551 0.527344 49.2057 0.527344C47.8558 0.527344 46.7594 1.62427 46.7594 2.97362V5.84187H22.8842V2.97362C22.8842 1.62365 21.7873 0.527344 20.4379 0.527344C19.088 0.527344 17.9917 1.62427 17.9917 2.97362V5.84187H7.78263C3.48018 5.84187 -0.0629883 9.38519 -0.0629883 13.6875V59.7506C-0.0629883 64.0531 3.48033 67.5963 7.78263 67.5963H45.1562C47.6873 74.5145 54.2676 79.4918 62.0292 79.4918C71.9839 79.4918 79.9988 71.3925 79.9988 61.4378C80.0836 54.3513 75.8653 48.1086 69.791 45.2398L69.7901 45.2405ZM4.82926 13.6881C4.82926 12.085 6.17923 10.735 7.78233 10.735H17.9908V13.6033C17.9908 14.9532 19.0877 16.0495 20.437 16.0495C21.787 16.0495 22.8833 14.9526 22.8833 13.6033V10.735H46.7585V13.6033C46.7585 14.9532 47.8555 16.0495 49.2048 16.0495C50.5548 16.0495 51.6511 14.9526 51.6511 13.6033V10.735H61.9442C63.5473 10.735 64.8973 12.085 64.8973 13.6881V23.6428H4.82956L4.82926 13.6881ZM7.78173 62.704C6.09458 62.704 4.82866 61.354 4.82866 59.7509V28.536H64.9807V43.7216C64.0527 43.5527 63.1247 43.4686 62.1125 43.4686C52.1577 43.4686 44.0584 51.5679 44.0584 61.5226C44.0584 61.9446 44.0584 62.3665 44.1426 62.7879H7.78137L7.78173 62.704ZM62.1126 74.5996C54.8572 74.5996 48.9519 68.6942 48.9519 61.4388C48.9519 54.1835 54.8572 48.2781 62.1126 48.2781C69.368 48.2781 75.2734 54.1835 75.2734 61.4388C75.2734 68.6936 69.2838 74.5996 62.1126 74.5996V74.5996Z" fill="white"/>
</g>
<defs>
<clipPath id="clip0_3322_1864">
<rect width="80" height="80" fill="white"/>
</clipPath>
</defs>
</svg>
