<svg width="528" height="60" viewBox="0 0 528 60" fill="none" xmlns="http://www.w3.org/2000/svg">
<path d="M93.4872 13.0678C89.0968 13.0626 84.8318 14.5323 81.3766 17.241V3.45312H73.7949V32.7399C73.7896 36.6374 74.9406 40.4489 77.1022 43.692C79.2638 46.9352 82.3389 49.4642 85.9384 50.9591C89.5378 52.454 93.4998 52.8475 97.323 52.0899C101.146 51.3323 104.659 49.4576 107.416 46.7031C110.173 43.9485 112.052 40.4379 112.813 36.6155C113.575 32.7932 113.185 28.8308 111.694 25.2298C110.203 21.6288 107.677 18.5512 104.436 16.3862C101.195 14.2213 97.3847 13.0664 93.4872 13.0678V13.0678ZM93.4872 44.8773C91.0905 44.8839 88.7458 44.1793 86.7498 42.8526C84.7538 41.5259 83.1964 39.6368 82.2746 37.4245C81.3528 35.2122 81.1082 32.7761 81.5717 30.4247C82.0352 28.0733 83.186 25.9122 84.8783 24.2152C86.5706 22.5181 88.7285 21.3614 91.0786 20.8914C93.4287 20.4213 95.8655 20.6592 98.0804 21.5748C100.295 22.4905 102.189 24.0427 103.521 26.035C104.853 28.0273 105.564 30.37 105.564 32.7667C105.554 35.9671 104.278 39.0334 102.016 41.2971C99.7532 43.5607 96.6876 44.838 93.4872 44.8504V44.8773Z" fill="#2B2922"/>
<path d="M157.012 34.9489C157.107 34.2171 157.152 33.4795 157.146 32.7415C157.138 27.7985 155.27 23.0396 151.912 19.4121C148.554 15.7847 143.953 13.5548 139.026 13.1663C134.098 12.7779 129.205 14.2594 125.32 17.316C121.435 20.3725 118.844 24.7799 118.063 29.6607C117.281 34.5415 118.366 39.5377 121.101 43.6546C123.837 47.7716 128.023 50.7073 132.825 51.8774C137.628 53.0475 142.695 52.3661 147.018 49.9688C151.34 47.5716 154.602 43.6344 156.153 38.941H147.846C146.593 41.0672 144.718 42.7584 142.474 43.7867C140.231 44.8151 137.726 45.1313 135.297 44.6927C132.868 44.2541 130.632 43.0819 128.889 41.3338C127.147 39.5857 125.982 37.3457 125.551 34.9153L157.012 34.9489ZM137.46 20.6309C139.809 20.6353 142.107 21.3209 144.074 22.6047C146.041 23.8884 147.594 25.7153 148.544 27.8637H126.403C127.352 25.7199 128.901 23.8964 130.863 22.6131C132.825 21.3297 135.116 20.6413 137.46 20.6309V20.6309Z" fill="#2B2922"/>
<path d="M200.979 34.9475C201.071 34.2154 201.116 33.4781 201.113 32.7401C201.112 27.7918 199.247 23.0256 195.89 19.3904C192.532 15.7552 187.929 13.5176 182.997 13.1232C178.064 12.7288 173.164 14.2065 169.272 17.2621C165.38 20.3177 162.781 24.727 161.993 29.6122C161.206 34.4974 162.286 39.5 165.021 43.6242C167.755 47.7484 171.943 50.6915 176.749 51.8675C181.556 53.0436 186.629 52.3664 190.958 49.9707C195.288 47.5751 198.557 43.6367 200.114 38.9397H191.807C190.554 41.0659 188.679 42.757 186.435 43.7854C184.191 44.8137 181.686 45.1299 179.258 44.6914C176.829 44.2528 174.592 43.0805 172.85 41.3324C171.108 39.5843 169.942 37.3443 169.512 34.914L200.979 34.9475ZM181.414 20.6296C183.76 20.6378 186.053 21.3253 188.017 22.6088C189.98 23.8923 191.53 25.717 192.478 27.8624H170.337C171.287 25.715 172.838 23.8889 174.804 22.6052C176.77 21.3215 179.066 20.6353 181.414 20.6296V20.6296Z" fill="#2B2922"/>
<path d="M54.6392 15.1339C50.4592 10.8063 44.4005 7.64618 37.5837 6.23719C28.9688 4.45248 20.327 5.76083 14.463 9.75295C14.3103 9.84833 14.1625 9.95134 14.0202 10.0616H13.9866C13.4106 10.465 12.8676 10.9137 12.3629 11.4035C12.0274 11.7121 11.692 12.0207 11.4571 12.3025L11.3766 12.3898C10.9002 12.8907 10.4649 13.4292 10.075 14L9.80662 14.3892C5.82792 20.2465 4.51287 28.8749 6.29087 37.5032C7.69985 44.32 10.86 50.3787 15.1876 54.5586C18.8778 58.1281 23.0645 60 27.2109 60C28.1462 60 29.0791 59.9056 29.9954 59.7182C36.7518 58.3226 41.7436 52.0158 43.2599 43.1257C52.1567 41.6027 58.4635 36.6109 59.8457 29.8679C60.8387 24.9096 59.007 19.6494 54.6392 15.1339ZM30.7804 39.194C29.935 39.0196 29.0963 38.8116 28.2643 38.5767L38.5767 28.2576C38.8116 29.0829 39.0196 29.9283 39.194 30.7736C39.8215 33.7425 40.0293 36.7847 39.8113 39.8113C36.7869 40.0284 33.747 39.8206 30.7804 39.194ZM13.678 28.9353C11.6651 26.0099 10.9137 22.8968 11.5108 19.9781C11.7584 18.7667 12.2318 17.6127 12.9064 16.5765L13.1613 16.2007C13.4899 15.7494 13.8439 15.317 14.2214 14.9058C14.3355 14.785 14.4496 14.6643 14.5703 14.5502C14.6911 14.4361 14.8052 14.3154 14.9326 14.2013C15.3551 13.8094 15.8034 13.4462 16.2745 13.1144L16.4557 12.9869L16.5429 12.9332C17.5881 12.2469 18.7537 11.7643 19.9781 11.5108C20.6248 11.3768 21.2836 11.3094 21.944 11.3095C24.4625 11.373 26.9026 12.1988 28.942 13.678L13.678 28.9353ZM29.1768 56.0817C25.4061 56.86 21.3603 55.4107 17.7707 51.9151C14.0067 48.2585 11.2089 42.8976 9.98107 36.8122C9.44722 34.2199 9.22201 31.5737 9.31012 28.9285C10.0707 30.4032 11.008 31.7799 12.1013 33.028C12.1152 33.0453 12.1309 33.0611 12.1482 33.075L12.1885 33.1287C12.8072 33.8344 13.4634 34.5063 14.1543 35.1415C15.1302 36.2393 16.2991 37.149 17.603 37.8253C19.6324 39.1763 21.8035 40.3013 24.0776 41.18C26.0054 41.9242 27.9915 42.5076 30.0155 42.9245C32.4744 43.4337 34.9787 43.6923 37.4898 43.696C38.0735 43.696 38.6572 43.696 39.2343 43.6357C37.832 50.3787 34.0948 55.0618 29.1768 56.0817V56.0817ZM56.0817 29.1701C55.0686 34.0814 50.3854 37.8186 43.6424 39.2343C43.7919 36.1316 43.5462 33.0226 42.911 29.9819C42.5001 27.9908 41.9279 26.0364 41.2001 24.138C41.1763 24.0622 41.1471 23.9883 41.1129 23.9166C40.2524 21.6874 39.1547 19.5572 37.8387 17.5627C37.165 16.263 36.2549 15.1003 35.1549 14.1342C34.5215 13.4437 33.8495 12.7896 33.1421 12.1751L33.1018 12.1281L32.9878 12.0342C31.7462 10.9474 30.3762 10.0168 28.9084 9.26316C31.5559 9.16847 34.2052 9.39375 36.7987 9.9341C42.8842 11.1888 48.2451 13.9598 51.9017 17.7506C55.3839 21.3603 56.86 25.4061 56.0817 29.1701ZM9.46444 2.64093C9.36447 2.40552 9.3131 2.15233 9.31339 1.89658C9.31369 1.64082 9.36565 1.38775 9.46616 1.15257C9.56667 0.917389 9.71366 0.704935 9.89831 0.527962C10.083 0.35099 10.3014 0.213144 10.5407 0.122696C10.7799 0.0322492 11.035 -0.00893434 11.2905 0.00161643C11.546 0.0121672 11.7968 0.0742371 12.0278 0.184098C12.2587 0.293958 12.4651 0.449345 12.6346 0.640937C12.804 0.832528 12.933 1.05637 13.0137 1.29904L14.5435 5.36497C14.6319 5.59755 14.6735 5.84529 14.666 6.09399C14.6586 6.34269 14.6021 6.58747 14.4999 6.81433C14.3977 7.04118 14.2517 7.24564 14.0704 7.41601C13.8891 7.58639 13.6759 7.71932 13.4431 7.80721C13.2295 7.89139 13.0019 7.93463 12.7722 7.93468C12.3871 7.93461 12.0112 7.81703 11.6946 7.59763C11.3781 7.37822 11.1361 7.06746 11.0009 6.70686L9.46444 2.64093ZM6.03591 14.671C5.80625 14.6709 5.57864 14.6277 5.36496 14.5435L1.29904 13.0137C1.05637 12.933 0.832527 12.804 0.640935 12.6346C0.449344 12.4651 0.293956 12.2587 0.184095 12.0278C0.0742346 11.7968 0.0121672 11.546 0.00161643 11.2905C-0.00893434 11.035 0.0322492 10.7799 0.122696 10.5407C0.213144 10.3014 0.35099 10.083 0.527962 9.89831C0.704935 9.71366 0.917387 9.56668 1.15257 9.46617C1.38775 9.36565 1.64081 9.31369 1.89657 9.31339C2.15233 9.3131 2.40552 9.36447 2.64093 9.46444L6.70685 10.9942C7.12379 11.1504 7.47255 11.4483 7.69218 11.8356C7.91182 12.2229 7.98836 12.675 7.90843 13.1131C7.8285 13.5511 7.59718 13.9471 7.2549 14.2319C6.91263 14.5166 6.48116 14.672 6.03591 14.671V14.671Z" fill="#2B2922"/>
<path d="M211.177 51.8542V3.92188H215.712V22.6412H215.84C217.395 20.4298 219.461 18.627 221.863 17.3864C224.265 16.1457 226.931 15.504 229.634 15.5158C240.001 15.5158 248.683 23.4195 248.683 34.0406C248.683 44.6616 240.39 52.6996 229.634 52.6996C226.932 52.7424 224.261 52.1204 221.856 50.8885C219.45 49.6565 217.384 47.8523 215.84 45.6345H215.712V51.8542H211.177ZM229.574 19.5951C221.798 19.5951 215.451 26.1369 215.451 34.1681C215.427 36.0504 215.775 37.9188 216.476 39.6659C217.177 41.4129 218.217 43.0042 219.535 44.348C220.853 45.6918 222.424 46.7616 224.157 47.496C225.891 48.2303 227.752 48.6147 229.634 48.6269C238.062 48.6269 244.147 42.3469 244.147 34.2486C244.14 25.8819 237.994 19.5951 229.574 19.5951Z" fill="#2B2922"/>
<path d="M258.069 35.7938C258.458 42.8521 264.94 48.629 271.803 48.629C277.305 48.629 282.538 45.4554 284.498 40.2757H289.288C287.864 44.408 285.019 47.9004 281.26 50.1303C277.501 52.3601 273.072 53.1825 268.763 52.4509C264.454 51.7193 260.544 49.4812 257.732 46.1356C254.919 42.79 253.386 38.5542 253.406 34.1835C253.406 23.8845 261.893 15.5312 271.803 15.5312C282.424 15.5312 290.388 24.6628 290.388 34.4452C290.388 34.9014 290.328 35.351 290.328 35.7871L258.069 35.7938ZM285.739 31.7144C284.444 24.589 278.808 19.5972 271.817 19.5972C265.208 19.5972 259.31 24.3944 258.082 31.7144H285.739Z" fill="#2B2922"/>
<path d="M323.876 51.8559V32.1033C323.876 24.1325 319.085 19.5969 312.865 19.5969C305.995 19.5969 301.788 24.8437 301.788 31.7746V51.8559H297.252V16.4234H301.788V20.9589H301.916C304.183 17.5237 308.202 15.5176 312.798 15.5176C322.581 15.5176 328.411 22.227 328.411 32.1033V51.8559H323.876Z" fill="#2B2922"/>
<path d="M339.677 35.7938C340.086 42.8521 346.541 48.629 353.411 48.629C358.913 48.629 364.146 45.4554 366.106 40.2757H370.896C369.472 44.408 366.627 47.9004 362.868 50.1303C359.109 52.3601 354.68 53.1825 350.371 52.4509C346.062 51.7193 342.152 49.4812 339.34 46.1356C336.527 42.79 334.994 38.5542 335.014 34.1835C335.014 23.8845 343.501 15.5312 353.411 15.5312C364.032 15.5312 372.003 24.6628 372.003 34.4452C372.003 34.9014 371.936 35.351 371.936 35.7871L339.677 35.7938ZM367.333 31.7144C366.038 24.589 360.402 19.5972 353.411 19.5972C346.802 19.5972 340.905 24.3944 339.677 31.7144H367.333Z" fill="#2B2922"/>
<path d="M397.452 51.8539V20.5006H385.918V51.8539H381.389V20.5006H375.881V16.4213H381.389V15.9046C381.389 5.84047 387.542 3.07617 394.989 3.07617V7.2897C389.286 7.2897 385.918 9.30254 385.918 15.643V16.4213H402.021V51.8539H397.452ZM397.452 12.0803V3.92156H401.987V12.0803H397.452Z" fill="#2B2922"/>
<path d="M445.511 41.4295C441.882 48.6153 436.118 52.7013 427.892 52.7013C417.332 52.7013 408.844 44.858 408.844 33.7874C408.844 24.0654 417.399 15.5176 427.892 15.5176C435.662 15.5176 442.593 19.8586 445.511 27.1115H440.52C439.333 24.8266 437.538 22.9149 435.331 21.5884C433.125 20.262 430.594 19.5727 428.02 19.5969C426.088 19.5554 424.168 19.9 422.371 20.6105C420.574 21.3209 418.938 22.383 417.557 23.7345C416.176 25.0859 415.079 26.6994 414.33 28.4804C413.581 30.2614 413.195 32.174 413.195 34.1061C413.195 36.0382 413.581 37.9508 414.33 39.7318C415.079 41.5128 416.176 43.1263 417.557 44.4777C418.938 45.8292 420.574 46.8913 422.371 47.6017C424.168 48.3122 426.088 48.6568 428.02 48.6153C433.387 48.6153 437.997 46.1529 440.52 41.4295H445.511Z" fill="#2B2922"/>
<path d="M452.308 12.0806V3.92188H456.83V12.0806H452.308ZM452.308 51.8542V16.4216H456.83V51.8542H452.308Z" fill="#2B2922"/>
<path d="M463.768 34.3644C463.768 23.9379 472.188 15.5176 482.232 15.5176C487.163 15.5176 491.892 17.4764 495.379 20.963C498.866 24.4497 500.824 29.1786 500.824 34.1095C500.824 39.0403 498.866 43.7692 495.379 47.2559C491.892 50.7425 487.163 52.7013 482.232 52.7013C472.188 52.7013 463.768 44.2139 463.768 34.3644ZM496.289 33.9149C496.289 26.2057 490.069 19.5969 482.232 19.5969C474.523 19.5969 468.304 26.3064 468.304 34.304C468.304 42.0736 474.59 48.6153 482.293 48.6153C490.264 48.6287 496.289 42.0132 496.289 33.9149V33.9149Z" fill="#2B2922"/>
<path d="M521.288 25.1447C521.026 21.7095 518.893 19.5691 515.974 19.5691C515.27 19.5557 514.57 19.6835 513.917 19.9451C513.263 20.2067 512.668 20.5967 512.168 21.0921C511.667 21.5876 511.271 22.1783 511.003 22.8294C510.735 23.4806 510.6 24.1789 510.606 24.883C510.606 27.4729 512.418 29.2844 516.759 30.7135C525.374 33.565 527.058 36.9936 527.058 42.0458C527.058 48.5271 522.717 52.6735 515.914 52.6735C509.828 52.6735 505.038 48.3325 505.038 41.5962V41.3346H509.566C509.634 46.0312 512.096 48.5875 515.914 48.5875C520 48.5875 522.522 46.3197 522.522 42.2404C522.522 38.8118 520.322 36.9332 516.242 35.4437C510.023 33.1759 506.071 31.418 506.071 25.3326C506.071 19.6362 510.345 15.4898 516.175 15.4898C517.449 15.467 518.715 15.7013 519.896 16.1785C521.077 16.6557 522.15 17.3662 523.051 18.2674C523.951 19.1686 524.661 20.2421 525.137 21.4237C525.614 22.6053 525.847 23.8709 525.823 25.1447H521.288Z" fill="#2B2922"/>
</svg>
