<svg width="422" height="48" viewBox="0 0 422 48" fill="none" xmlns="http://www.w3.org/2000/svg">
<path d="M74.7895 10.4544C71.2771 10.4503 67.8652 11.626 65.101 13.793V2.7627H59.0357V26.1921C59.0314 29.3101 59.9522 32.3593 61.6815 34.9538C63.4108 37.5483 65.8709 39.5715 68.7504 40.7675C71.6299 41.9634 74.7995 42.2782 77.8581 41.6721C80.9166 41.066 83.7266 39.5663 85.9325 37.3627C88.1384 35.159 89.641 32.3505 90.2502 29.2926C90.8594 26.2347 90.5479 23.0648 89.3549 20.184C88.1619 17.3033 86.1412 14.8411 83.5485 13.1092C80.9557 11.3772 77.9075 10.4533 74.7895 10.4544V10.4544ZM74.7895 35.902C72.8721 35.9073 70.9963 35.3436 69.3995 34.2823C67.8028 33.2209 66.5568 31.7097 65.8194 29.9398C65.082 28.1699 64.8863 26.2211 65.2571 24.3399C65.6279 22.4588 66.5485 20.73 67.9023 19.3723C69.2562 18.0147 70.9825 17.0893 72.8626 16.7133C74.7427 16.3373 76.6921 16.5276 78.464 17.2601C80.2359 17.9926 81.7506 19.2343 82.8164 20.8282C83.8822 22.422 84.4511 24.2962 84.4511 26.2136C84.4426 28.7739 83.4221 31.227 81.6122 33.0379C79.8023 34.8488 77.3498 35.8706 74.7895 35.8805V35.902Z" fill="#FFFDF8"/>
<path d="M125.61 27.9572C125.686 27.3717 125.722 26.7816 125.717 26.1912C125.711 22.2368 124.216 18.4297 121.53 15.5277C118.844 12.6258 115.163 10.8418 111.221 10.5311C107.279 10.2204 103.364 11.4056 100.257 13.8508C97.1488 16.2961 95.0759 19.822 94.4505 23.7266C93.8251 27.6312 94.693 31.6282 96.8816 34.9217C99.0701 38.2153 102.419 40.5639 106.261 41.5C110.103 42.436 114.156 41.8909 117.615 39.9731C121.073 38.0553 123.682 34.9056 124.923 31.1509H118.278C117.275 32.8518 115.775 34.2048 113.98 35.0274C112.185 35.8501 110.181 36.1031 108.238 35.7522C106.295 35.4014 104.506 34.4636 103.112 33.0651C101.718 31.6666 100.786 29.8746 100.441 27.9303L125.61 27.9572ZM109.969 16.5028C111.848 16.5063 113.686 17.0548 115.26 18.0818C116.834 19.1088 118.076 20.5702 118.836 22.289H101.123C101.882 20.574 103.121 19.1152 104.691 18.0885C106.26 17.0618 108.093 16.5111 109.969 16.5028V16.5028Z" fill="#FFFDF8"/>
<path d="M160.783 27.9578C160.857 27.3721 160.893 26.7823 160.89 26.1919C160.889 22.2333 159.397 18.4203 156.711 15.5121C154.026 12.6039 150.343 10.8139 146.397 10.4984C142.451 10.1829 138.531 11.365 135.417 13.8095C132.304 16.254 130.225 19.7814 129.594 23.6896C128.964 27.5977 129.829 31.5998 132.017 34.8992C134.204 38.1985 137.554 40.553 141.399 41.4938C145.244 42.4347 149.303 41.8929 152.766 39.9764C156.23 38.0598 158.845 34.9091 160.091 31.1515H153.446C152.443 32.8525 150.943 34.2054 149.148 35.0281C147.353 35.8508 145.349 36.1037 143.406 35.7529C141.463 35.402 139.674 34.4642 138.28 33.0658C136.886 31.6673 135.954 29.8753 135.609 27.931L160.783 27.9578ZM145.131 16.5035C147.008 16.5101 148.842 17.06 150.413 18.0869C151.984 19.1137 153.223 20.5734 153.982 22.2897H136.269C137.029 20.5718 138.27 19.1109 139.843 18.0839C141.416 17.057 143.253 16.508 145.131 16.5035V16.5035Z" fill="#FFFDF8"/>
<path d="M43.7113 12.1071C40.3673 8.64506 35.5204 6.11694 30.067 4.98976C23.175 3.56199 16.2616 4.60866 11.5704 7.80236C11.4482 7.87867 11.33 7.96107 11.2161 8.04926H11.1893C10.7285 8.37201 10.2941 8.73099 9.89034 9.12278C9.62196 9.36968 9.35358 9.61659 9.16572 9.84203L9.10131 9.91181C8.72017 10.3125 8.37194 10.7433 8.06 11.2L7.8453 11.5113C4.66233 16.1972 3.61029 23.0999 5.0327 30.0026C6.15988 35.456 8.688 40.3029 12.1501 43.6469C15.1022 46.5025 18.4516 48 21.7687 48C22.5169 48 23.2632 47.9244 23.9963 47.7746C29.4014 46.6581 33.3949 41.6126 34.6079 34.5006C41.7253 33.2822 46.7708 29.2887 47.8765 23.8943C48.6709 19.9277 47.2056 15.7195 43.7113 12.1071ZM24.6243 31.3552C23.948 31.2156 23.277 31.0493 22.6115 30.8614L30.8614 22.6061C31.0493 23.2663 31.2156 23.9426 31.3552 24.6189C31.8572 26.994 32.0234 29.4278 31.849 31.849C29.4295 32.0227 26.9976 31.8565 24.6243 31.3552ZM10.9424 23.1482C9.33211 20.808 8.73094 18.3174 9.20866 15.9825C9.40669 15.0134 9.78544 14.0902 10.3251 13.2612L10.5291 12.9606C10.7919 12.5995 11.0751 12.2536 11.3771 11.9246C11.4684 11.828 11.5596 11.7314 11.6563 11.6402C11.7529 11.5489 11.8441 11.4523 11.9461 11.361C12.2841 11.0475 12.6427 10.757 13.0196 10.4915L13.1645 10.3895L13.2343 10.3466C14.0705 9.79751 15.0029 9.41143 15.9825 9.20866C16.4999 9.10144 17.0269 9.04749 17.5552 9.04763C19.57 9.09837 21.5221 9.75903 23.1536 10.9424L10.9424 23.1482ZM23.3414 44.8653C20.3249 45.488 17.0882 44.3286 14.2166 41.5321C11.2054 38.6068 8.96712 34.3181 7.98485 29.4497C7.55778 27.376 7.37761 25.2589 7.4481 23.1428C8.05655 24.3226 8.80637 25.4239 9.681 26.4224C9.69214 26.4363 9.70473 26.4489 9.71857 26.46L9.75078 26.5029C10.2458 27.0675 10.7707 27.605 11.3235 28.1132C12.1042 28.9915 13.0393 29.7192 14.0824 30.2602C15.7059 31.3411 17.4428 32.241 19.2621 32.944C20.8044 33.5393 22.3932 34.0061 24.0124 34.3396C25.9795 34.747 27.9829 34.9538 29.9918 34.9568C30.4588 34.9568 30.9258 34.9568 31.3874 34.9085C30.2656 40.3029 27.2759 44.0495 23.3414 44.8653V44.8653ZM44.8653 23.3361C44.0548 27.2651 40.3083 30.2549 34.9139 31.3874C35.0335 28.9053 34.8369 26.418 34.3288 23.9855C34.0001 22.3926 33.5423 20.8291 32.9601 19.3104C32.941 19.2498 32.9177 19.1906 32.8903 19.1333C32.2019 17.3499 31.3237 15.6458 30.271 14.0502C29.732 13.0104 29.0039 12.0802 28.1239 11.3074C27.6172 10.755 27.0796 10.2317 26.5137 9.74004L26.4815 9.70247L26.3902 9.62733C25.397 8.75794 24.301 8.01346 23.1267 7.41053C25.2448 7.33478 27.3642 7.515 29.439 7.94728C34.3074 8.95102 38.596 11.1678 41.5214 14.2005C44.3071 17.0882 45.488 20.3249 44.8653 23.3361ZM7.57155 2.11274C7.49158 1.92441 7.45048 1.72187 7.45071 1.51726C7.45095 1.31265 7.49252 1.1102 7.57293 0.922057C7.65334 0.733912 7.77093 0.563948 7.91865 0.42237C8.06636 0.280792 8.24116 0.170515 8.43254 0.0981571C8.62393 0.0257994 8.82796 -0.00714747 9.0324 0.00129315C9.23683 0.00973376 9.43745 0.0593897 9.62222 0.147278C9.80699 0.235167 9.9721 0.359476 10.1076 0.512749C10.2432 0.666023 10.3464 0.845099 10.411 1.03923L11.6348 4.29197C11.7055 4.47804 11.7388 4.67623 11.7328 4.87519C11.7269 5.07415 11.6817 5.26998 11.5999 5.45146C11.5181 5.63294 11.4014 5.79651 11.2563 5.93281C11.1113 6.06911 10.9407 6.17546 10.7545 6.24576C10.5836 6.31311 10.4015 6.3477 10.2178 6.34775C9.90966 6.34769 9.60892 6.25362 9.35571 6.0781C9.1025 5.90258 8.90888 5.65397 8.80072 5.36549L7.57155 2.11274ZM4.82873 11.7368C4.645 11.7367 4.46291 11.7021 4.29197 11.6348L1.03923 10.411C0.845098 10.3464 0.666022 10.2432 0.512748 10.1076C0.359475 9.9721 0.235164 9.80699 0.147276 9.62222C0.0593877 9.43745 0.00973376 9.23683 0.00129315 9.0324C-0.00714747 8.82796 0.0257994 8.62393 0.0981571 8.43255C0.170515 8.24116 0.280792 8.06636 0.42237 7.91865C0.563948 7.77093 0.73391 7.65334 0.922055 7.57293C1.1102 7.49252 1.31265 7.45095 1.51726 7.45072C1.72187 7.45048 1.92441 7.49158 2.11274 7.57155L5.36548 8.79536C5.69903 8.92036 5.97804 9.15861 6.15375 9.46845C6.32946 9.7783 6.39069 10.14 6.32674 10.4905C6.2628 10.8409 6.07775 11.1577 5.80392 11.3855C5.5301 11.6133 5.18493 11.7376 4.82873 11.7368V11.7368Z" fill="#FFFDF8"/>
<path d="M168.942 41.4835V3.1377H172.57V18.1132H172.672C173.916 16.3441 175.569 14.9018 177.491 13.9093C179.412 12.9168 181.545 12.4034 183.708 12.4128C192.001 12.4128 198.947 18.7358 198.947 27.2327C198.947 35.7295 192.312 42.1598 183.708 42.1598C181.546 42.1941 179.409 41.6965 177.485 40.711C175.561 39.7254 173.908 38.282 172.672 36.5078H172.57V41.4835H168.942ZM183.66 15.6763C177.439 15.6763 172.361 20.9097 172.361 27.3346C172.342 28.8405 172.621 30.3352 173.181 31.7329C173.742 33.1305 174.574 34.4035 175.628 35.4786C176.683 36.5536 177.94 37.4095 179.326 37.997C180.713 38.5845 182.202 38.892 183.708 38.9017C190.45 38.9017 195.318 33.8777 195.318 27.3991C195.313 20.7057 190.396 15.6763 183.66 15.6763Z" fill="#FFFDF8"/>
<path d="M206.456 28.6339C206.767 34.2805 211.952 38.902 217.443 38.902C221.845 38.902 226.031 36.3631 227.599 32.2194H231.431C230.292 35.5252 228.016 38.3191 225.008 40.103C222.001 41.8869 218.458 42.5449 215.011 41.9596C211.563 41.3743 208.436 39.5838 206.186 36.9073C203.936 34.2308 202.709 30.8422 202.725 27.3456C202.725 19.1064 209.515 12.4238 217.443 12.4238C225.94 12.4238 232.311 19.7291 232.311 27.555C232.311 27.92 232.263 28.2796 232.263 28.6285L206.456 28.6339ZM228.592 25.3704C227.556 19.67 223.047 15.6766 217.454 15.6766C212.167 15.6766 207.449 19.5144 206.466 25.3704H228.592Z" fill="#FFFDF8"/>
<path d="M259.101 41.4838V25.6817C259.101 19.305 255.268 15.6766 250.293 15.6766C244.796 15.6766 241.431 19.874 241.431 25.4187V41.4838H237.802V13.1377H241.431V16.7662H241.533C243.347 14.018 246.562 12.4131 250.239 12.4131C258.065 12.4131 262.729 17.7806 262.729 25.6817V41.4838H259.101Z" fill="#FFFDF8"/>
<path d="M271.741 28.6339C272.069 34.2805 277.232 38.902 282.729 38.902C287.13 38.902 291.317 36.3631 292.884 32.2194H296.717C295.577 35.5252 293.301 38.3191 290.294 40.103C287.287 41.8869 283.744 42.5449 280.296 41.9596C276.849 41.3743 273.722 39.5838 271.472 36.9073C269.222 34.2308 267.995 30.8422 268.011 27.3456C268.011 19.1064 274.801 12.4238 282.729 12.4238C291.226 12.4238 297.602 19.7291 297.602 27.555C297.602 27.92 297.549 28.2796 297.549 28.6285L271.741 28.6339ZM293.866 25.3704C292.831 19.67 288.322 15.6766 282.729 15.6766C277.442 15.6766 272.724 19.5144 271.741 25.3704H293.866Z" fill="#FFFDF8"/>
<path d="M317.961 41.4841V16.4015H308.734V41.4841H305.111V16.4015H300.705V13.138H305.111V12.7247C305.111 4.67335 310.033 2.46191 315.991 2.46191V5.83274C311.429 5.83274 308.734 7.44301 308.734 12.5154V13.138H321.617V41.4841H317.961ZM317.961 9.66518V3.13823H321.59V9.66518H317.961Z" fill="#FFFDF8"/>
<path d="M356.409 33.1426C353.505 38.8912 348.895 42.1601 342.314 42.1601C333.866 42.1601 327.076 35.8854 327.076 27.0289C327.076 19.2514 333.919 12.4131 342.314 12.4131C348.53 12.4131 354.074 15.8859 356.409 21.6882H352.416C351.467 19.8603 350.03 18.3309 348.265 17.2698C346.5 16.2086 344.475 15.6572 342.416 15.6766C340.871 15.6433 339.334 15.919 337.897 16.4874C336.46 17.0558 335.15 17.9055 334.046 18.9866C332.941 20.0677 332.063 21.3585 331.464 22.7833C330.865 24.2081 330.556 25.7382 330.556 27.2839C330.556 28.8296 330.865 30.3597 331.464 31.7845C332.063 33.2093 332.941 34.5001 334.046 35.5812C335.15 36.6623 336.46 37.512 337.897 38.0804C339.334 38.6488 340.871 38.9245 342.416 38.8912C346.71 38.8912 350.398 36.9214 352.416 33.1426H356.409Z" fill="#FFFDF8"/>
<path d="M361.847 9.66465V3.1377H365.464V9.66465H361.847ZM361.847 41.4835V13.1375H365.464V41.4835H361.847Z" fill="#FFFDF8"/>
<path d="M371.014 27.4906C371.014 19.1494 377.751 12.4131 385.786 12.4131C389.73 12.4131 393.514 13.9801 396.303 16.7694C399.092 19.5588 400.659 23.3419 400.659 27.2866C400.659 31.2313 399.092 35.0144 396.303 37.8037C393.514 40.5931 389.73 42.1601 385.786 42.1601C377.751 42.1601 371.014 35.3701 371.014 27.4906ZM397.031 27.1309C397.031 20.9636 392.055 15.6766 385.786 15.6766C379.618 15.6766 374.643 21.0441 374.643 27.4422C374.643 33.6579 379.672 38.8912 385.834 38.8912C392.211 38.902 397.031 33.6096 397.031 27.1309V27.1309Z" fill="#FFFDF8"/>
<path d="M417.03 20.1158C416.821 17.3676 415.114 15.6553 412.779 15.6553C412.216 15.6445 411.656 15.7468 411.133 15.9561C410.61 16.1653 410.135 16.4774 409.734 16.8737C409.334 17.2701 409.017 17.7427 408.803 18.2636C408.588 18.7845 408.48 19.3431 408.485 19.9064C408.485 21.9783 409.934 23.4275 413.407 24.5708C420.299 26.852 421.647 29.5949 421.647 33.6366C421.647 38.8217 418.174 42.1388 412.731 42.1388C407.863 42.1388 404.03 38.666 404.03 33.277V33.0677H407.653C407.707 36.825 409.677 38.87 412.731 38.87C416 38.87 418.018 37.0558 418.018 33.7923C418.018 31.0495 416.257 29.5465 412.994 28.3549C408.018 26.5407 404.857 25.1344 404.857 20.266C404.857 15.709 408.276 12.3918 412.94 12.3918C413.959 12.3736 414.972 12.561 415.917 12.9428C416.862 13.3246 417.72 13.8929 418.441 14.6139C419.161 15.3349 419.729 16.1936 420.11 17.1389C420.491 18.0843 420.678 19.0967 420.659 20.1158H417.03Z" fill="#FFFDF8"/>
</svg>
