<svg width="60" height="528" viewBox="0 0 60 528" fill="none" xmlns="http://www.w3.org/2000/svg">
<g clip-path="url(#clip0)">
<path d="M13.0678 434.513C13.0626 438.903 14.5323 443.168 17.241 446.623L3.45312 446.623L3.45312 454.205L32.7399 454.205C36.6374 454.21 40.4489 453.059 43.692 450.898C46.9352 448.736 49.4642 445.661 50.9591 442.062C52.454 438.462 52.8475 434.5 52.0899 430.677C51.3323 426.854 49.4576 423.341 46.7031 420.584C43.9485 417.827 40.4379 415.948 36.6155 415.187C32.7932 414.425 28.8308 414.815 25.2298 416.306C21.6288 417.797 18.5512 420.323 16.3862 423.564C14.2213 426.805 13.0664 430.615 13.0678 434.513ZM44.8773 434.513C44.8839 436.909 44.1793 439.254 42.8526 441.25C41.5259 443.246 39.6368 444.804 37.4245 445.725C35.2122 446.647 32.7761 446.892 30.4247 446.428C28.0733 445.965 25.9122 444.814 24.2152 443.122C22.5181 441.429 21.3614 439.271 20.8914 436.921C20.4213 434.571 20.6592 432.134 21.5748 429.92C22.4905 427.705 24.0427 425.811 26.035 424.479C28.0273 423.147 30.37 422.436 32.7667 422.436C35.9671 422.446 39.0334 423.722 41.2971 425.984C43.5607 428.247 44.838 431.312 44.8504 434.513L44.8773 434.513Z" fill="#2B2922"/>
<path d="M34.9489 370.988C34.2171 370.893 33.4795 370.848 32.7415 370.854C27.7985 370.862 23.0396 372.73 19.4121 376.088C15.7847 379.446 13.5548 384.047 13.1663 388.974C12.7779 393.902 14.2594 398.795 17.316 402.68C20.3725 406.565 24.7799 409.156 29.6607 409.937C34.5415 410.719 39.5377 409.634 43.6546 406.899C47.7716 404.163 50.7073 399.977 51.8774 395.175C53.0475 390.372 52.3661 385.305 49.9688 380.982C47.5716 376.66 43.6344 373.398 38.941 371.847L38.941 380.154C41.0672 381.407 42.7584 383.282 43.7867 385.526C44.8151 387.769 45.1313 390.274 44.6927 392.703C44.2541 395.132 43.0819 397.368 41.3338 399.111C39.5857 400.853 37.3457 402.018 34.9153 402.449L34.9489 370.988ZM20.6309 390.54C20.6353 388.191 21.3209 385.893 22.6047 383.926C23.8884 381.959 25.7153 380.406 27.8637 379.456L27.8637 401.597C25.7199 400.648 23.8964 399.099 22.6131 397.137C21.3297 395.175 20.6413 392.884 20.6309 390.54Z" fill="#2B2922"/>
<path d="M34.9475 327.021C34.2154 326.929 33.4781 326.884 32.7401 326.887C27.7918 326.888 23.0256 328.753 19.3904 332.11C15.7552 335.468 13.5176 340.071 13.1232 345.003C12.7288 349.936 14.2065 354.836 17.2621 358.728C20.3177 362.62 24.727 365.219 29.6122 366.007C34.4974 366.794 39.5 365.714 43.6242 362.979C47.7484 360.245 50.6915 356.057 51.8675 351.251C53.0436 346.444 52.3664 341.371 49.9707 337.042C47.5751 332.712 43.6367 329.443 38.9397 327.886L38.9397 336.193C41.0659 337.446 42.757 339.321 43.7854 341.565C44.8137 343.809 45.1299 346.314 44.6914 348.742C44.2528 351.171 43.0805 353.408 41.3324 355.15C39.5843 356.892 37.3443 358.058 34.914 358.488L34.9475 327.021ZM20.6296 346.586C20.6378 344.24 21.3253 341.947 22.6088 339.983C23.8923 338.02 25.717 336.47 27.8624 335.522L27.8624 357.663C25.715 356.713 23.8889 355.162 22.6052 353.196C21.3215 351.23 20.6353 348.934 20.6296 346.586Z" fill="#2B2922"/>
<path d="M15.1339 473.361C10.8063 477.541 7.64618 483.6 6.23719 490.416C4.45248 499.031 5.76083 507.673 9.75295 513.537C9.84833 513.69 9.95134 513.837 10.0616 513.98L10.0616 514.013C10.465 514.589 10.9137 515.132 11.4035 515.637C11.7121 515.973 12.0207 516.308 12.3025 516.543L12.3898 516.623C12.8907 517.1 13.4292 517.535 14 517.925L14.3892 518.193C20.2465 522.172 28.8749 523.487 37.5032 521.709C44.32 520.3 50.3787 517.14 54.5586 512.812C58.1281 509.122 60 504.935 60 500.789C60 499.854 59.9056 498.921 59.7182 498.005C58.3226 491.248 52.0158 486.256 43.1257 484.74C41.6027 475.843 36.6109 469.536 29.8679 468.154C24.9096 467.161 19.6494 468.993 15.1339 473.361ZM39.194 497.22C39.0196 498.065 38.8116 498.904 38.5767 499.736L28.2576 489.423C29.0829 489.188 29.9283 488.98 30.7736 488.806C33.7425 488.178 36.7847 487.971 39.8113 488.189C40.0284 491.213 39.8206 494.253 39.194 497.22ZM28.9353 514.322C26.0099 516.335 22.8968 517.086 19.9781 516.489C18.7667 516.242 17.6127 515.768 16.5765 515.094L16.2007 514.839C15.7494 514.51 15.317 514.156 14.9058 513.779C14.785 513.664 14.6643 513.55 14.5502 513.43C14.4361 513.309 14.3154 513.195 14.2013 513.067C13.8094 512.645 13.4462 512.197 13.1144 511.725L12.9869 511.544L12.9332 511.457C12.2469 510.412 11.7643 509.246 11.5108 508.022C11.3768 507.375 11.3094 506.716 11.3095 506.056C11.373 503.537 12.1988 501.097 13.678 499.058L28.9353 514.322ZM56.0817 498.823C56.86 502.594 55.4107 506.64 51.9151 510.229C48.2585 513.993 42.8976 516.791 36.8122 518.019C34.2199 518.553 31.5737 518.778 28.9285 518.69C30.4032 517.929 31.7799 516.992 33.028 515.899C33.0453 515.885 33.0611 515.869 33.075 515.852L33.1287 515.811C33.8344 515.193 34.5063 514.537 35.1415 513.846C36.2393 512.87 37.149 511.701 37.8253 510.397C39.1763 508.368 40.3013 506.196 41.18 503.922C41.9242 501.995 42.5076 500.008 42.9245 497.984C43.4337 495.526 43.6923 493.021 43.696 490.51C43.696 489.926 43.696 489.343 43.6357 488.766C50.3787 490.168 55.0618 493.905 56.0817 498.823ZM29.1701 471.918C34.0814 472.931 37.8186 477.615 39.2343 484.358C36.1316 484.208 33.0226 484.454 29.9819 485.089C27.9908 485.5 26.0364 486.072 24.138 486.8C24.0622 486.824 23.9883 486.853 23.9166 486.887C21.6874 487.748 19.5572 488.845 17.5627 490.161C16.263 490.835 15.1003 491.745 14.1342 492.845C13.4437 493.478 12.7896 494.15 12.1751 494.858L12.1281 494.898L12.0342 495.012C10.9474 496.254 10.0168 497.624 9.26316 499.092C9.16847 496.444 9.39375 493.795 9.9341 491.201C11.1888 485.116 13.9598 479.755 17.7506 476.098C21.3603 472.616 25.4061 471.14 29.1701 471.918ZM2.64093 518.536C2.40552 518.636 2.15233 518.687 1.89658 518.687C1.64082 518.686 1.38775 518.634 1.15257 518.534C0.917389 518.433 0.704935 518.286 0.527962 518.102C0.35099 517.917 0.213144 517.699 0.122696 517.459C0.0322487 517.22 -0.00893482 516.965 0.00161594 516.71C0.0121667 516.454 0.0742366 516.203 0.184097 515.972C0.293957 515.741 0.449344 515.535 0.640936 515.365C0.832527 515.196 1.05637 515.067 1.29904 514.986L5.36497 513.456C5.59755 513.368 5.84529 513.326 6.09399 513.334C6.34269 513.341 6.58747 513.398 6.81433 513.5C7.04118 513.602 7.24564 513.748 7.41601 513.93C7.58639 514.111 7.71932 514.324 7.80721 514.557C7.89139 514.77 7.93463 514.998 7.93468 515.228C7.93461 515.613 7.81703 515.989 7.59763 516.305C7.37822 516.622 7.06746 516.864 6.70686 516.999L2.64093 518.536ZM14.671 521.964C14.6709 522.194 14.6277 522.421 14.5435 522.635L13.0137 526.701C12.933 526.944 12.804 527.167 12.6346 527.359C12.4651 527.551 12.2587 527.706 12.0278 527.816C11.7968 527.926 11.546 527.988 11.2905 527.998C11.035 528.009 10.7799 527.968 10.5407 527.877C10.3014 527.787 10.083 527.649 9.89831 527.472C9.71366 527.295 9.56668 527.083 9.46617 526.847C9.36565 526.612 9.31369 526.359 9.31339 526.103C9.3131 525.848 9.36447 525.594 9.46444 525.359L10.9942 521.293C11.1504 520.876 11.4483 520.527 11.8356 520.308C12.2229 520.088 12.675 520.012 13.1131 520.092C13.5511 520.171 13.9471 520.403 14.2319 520.745C14.5166 521.087 14.672 521.519 14.671 521.964Z" fill="#2B2922"/>
<path d="M51.8542 316.823L3.92188 316.823L3.92187 312.288L22.6412 312.288L22.6412 312.16C20.4298 310.605 18.627 308.539 17.3864 306.137C16.1457 303.735 15.504 301.069 15.5158 298.366C15.5158 287.999 23.4195 279.317 34.0406 279.317C44.6616 279.317 52.6996 287.61 52.6996 298.366C52.7424 301.068 52.1204 303.739 50.8885 306.144C49.6565 308.55 47.8523 310.616 45.6345 312.16L45.6345 312.288L51.8542 312.288L51.8542 316.823ZM19.5951 298.426C19.5951 306.202 26.1369 312.549 34.1681 312.549C36.0504 312.573 37.9188 312.225 39.6659 311.524C41.4129 310.823 43.0042 309.783 44.348 308.465C45.6918 307.147 46.7616 305.576 47.496 303.843C48.2303 302.109 48.6147 300.248 48.6269 298.366C48.6269 289.938 42.3469 283.853 34.2486 283.853C25.8819 283.86 19.5951 290.006 19.5951 298.426Z" fill="#2B2922"/>
<path d="M35.7938 269.931C42.8521 269.542 48.6291 263.06 48.6291 256.197C48.6291 250.695 45.4554 245.462 40.2757 243.502L40.2757 238.712C44.408 240.136 47.9004 242.981 50.1303 246.74C52.3601 250.499 53.1825 254.928 52.4509 259.237C51.7194 263.546 49.4813 267.456 46.1357 270.268C42.7901 273.081 38.5542 274.614 34.1835 274.594C23.8845 274.594 15.5312 266.107 15.5312 256.197C15.5312 245.576 24.6628 237.612 34.4452 237.612C34.9014 237.612 35.351 237.672 35.7871 237.672L35.7938 269.931ZM31.7144 242.261C24.589 243.556 19.5972 249.192 19.5972 256.183C19.5972 262.792 24.3944 268.69 31.7144 269.918L31.7144 242.261Z" fill="#2B2922"/>
<path d="M51.8559 204.124L32.1033 204.124C24.1325 204.124 19.5969 208.915 19.5969 215.135C19.5969 222.005 24.8437 226.212 31.7746 226.212L51.8559 226.212L51.8559 230.748L16.4234 230.748L16.4234 226.212L20.9589 226.212L20.9589 226.084C17.5237 223.817 15.5176 219.798 15.5176 215.202C15.5176 205.419 22.227 199.589 32.1033 199.589L51.8559 199.589L51.8559 204.124Z" fill="#2B2922"/>
<path d="M35.7938 188.323C42.8521 187.914 48.6291 181.459 48.6291 174.589C48.6291 169.087 45.4554 163.854 40.2757 161.894L40.2757 157.104C44.408 158.528 47.9004 161.373 50.1303 165.132C52.3601 168.891 53.1825 173.32 52.4509 177.629C51.7194 181.938 49.4813 185.848 46.1357 188.66C42.7901 191.473 38.5542 193.006 34.1835 192.986C23.8845 192.986 15.5312 184.499 15.5312 174.589C15.5312 163.968 24.6628 155.997 34.4452 155.997C34.9014 155.997 35.351 156.064 35.7871 156.064L35.7938 188.323ZM31.7144 160.667C24.589 161.962 19.5972 167.598 19.5972 174.589C19.5972 181.198 24.3944 187.095 31.7144 188.323L31.7144 160.667Z" fill="#2B2922"/>
<path d="M51.8539 130.548L20.5006 130.548L20.5006 142.082L51.8539 142.082L51.8539 146.611L20.5006 146.611L20.5006 152.119L16.4213 152.119L16.4213 146.611L15.9046 146.611C5.84047 146.611 3.07617 140.458 3.07617 133.011L7.2897 133.011C7.2897 138.714 9.30254 142.082 15.643 142.082L16.4213 142.082L16.4213 125.979L51.8539 125.979L51.8539 130.548ZM12.0803 130.548L3.92156 130.548L3.92156 126.013L12.0803 126.013L12.0803 130.548Z" fill="#2B2922"/>
<path d="M41.4295 82.489C48.6153 86.118 52.7013 91.882 52.7013 100.108C52.7013 110.668 44.858 119.156 33.7874 119.156C24.0654 119.156 15.5176 110.601 15.5176 100.108C15.5176 92.338 19.8586 85.407 27.1115 82.489L27.1115 87.48C24.8266 88.667 22.9149 90.462 21.5884 92.669C20.262 94.875 19.5727 97.406 19.5969 99.98C19.5554 101.912 19.9 103.832 20.6105 105.629C21.3209 107.426 22.383 109.062 23.7345 110.443C25.0859 111.824 26.6994 112.921 28.4804 113.67C30.2614 114.419 32.174 114.805 34.1061 114.805C36.0382 114.805 37.9508 114.419 39.7318 113.67C41.5128 112.921 43.1263 111.824 44.4777 110.443C45.8292 109.062 46.8913 107.426 47.6017 105.629C48.3122 103.832 48.6568 101.912 48.6153 99.98C48.6153 94.613 46.1529 90.003 41.4295 87.48L41.4295 82.489Z" fill="#2B2922"/>
<path d="M12.0806 75.6919L3.92188 75.6919L3.92187 71.1699L12.0806 71.1699L12.0806 75.6919ZM51.8542 75.6919L16.4216 75.6919L16.4216 71.1699L51.8542 71.1699L51.8542 75.6919Z" fill="#2B2922"/>
<path d="M34.3644 64.2319C23.9379 64.2319 15.5176 55.8119 15.5176 45.7679C15.5176 40.8369 17.4764 36.1079 20.963 32.6209C24.4497 29.1339 29.1786 27.1759 34.1095 27.1759C39.0403 27.1759 43.7692 29.1339 47.2559 32.6209C50.7425 36.1079 52.7013 40.8369 52.7013 45.7679C52.7013 55.8119 44.2139 64.2319 34.3644 64.2319ZM33.9149 31.7109C26.2057 31.7109 19.5969 37.9309 19.5969 45.7679C19.5969 53.4769 26.3064 59.696 34.304 59.696C42.0736 59.696 48.6153 53.4099 48.6153 45.7069C48.6287 37.7359 42.0132 31.7109 33.9149 31.7109Z" fill="#2B2922"/>
<path d="M25.1447 6.71188C21.7095 6.97388 19.5691 9.10691 19.5691 12.0259C19.5557 12.7299 19.6835 13.4299 19.9451 14.0829C20.2067 14.7369 20.5967 15.3319 21.0921 15.8319C21.5876 16.3329 22.1783 16.7289 22.8294 16.9969C23.4806 17.2649 24.1789 17.3999 24.883 17.3939C27.4729 17.3939 29.2844 15.5819 30.7135 11.2409C33.565 2.62594 36.9936 0.941924 42.0458 0.941924C48.5271 0.941924 52.6735 5.28291 52.6735 12.0859C52.6735 18.1719 48.3325 22.9619 41.5962 22.9619L41.3346 22.9619L41.3346 18.4339C46.0312 18.3659 48.5875 15.9039 48.5875 12.0859C48.5875 7.99991 46.3197 5.47793 42.2404 5.47793C38.8118 5.47793 36.9332 7.6779 35.4437 11.7579C33.1759 17.9769 31.418 21.9289 25.3326 21.9289C19.6362 21.9289 15.4898 17.6549 15.4898 11.8249C15.467 10.5509 15.7013 9.28491 16.1785 8.10391C16.6557 6.92291 17.3662 5.84988 18.2674 4.94888C19.1686 4.04888 20.2421 3.33888 21.4237 2.86288C22.6053 2.38588 23.8709 2.15291 25.1447 2.17691L25.1447 6.71188Z" fill="#2B2922"/>
</g>
<defs>
<clipPath id="clip0">
<rect width="528" height="60" fill="white" transform="translate(0 528) rotate(-90)"/>
</clipPath>
</defs>
</svg>
